<svg width="80" height="89" viewBox="0 0 80 89" fill="none" xmlns="http://www.w3.org/2000/svg">
<path d="M1.59645 22.2154L39.7798 44.1599M39.7798 44.1599L77.9631 22.2154M39.7798 44.1599V88.0488M79.2798 26.6043C79.2782 25.065 78.8719 23.5532 78.1015 22.2205C77.3312 20.8879 76.224 19.7812 74.8909 19.0116L44.1687 1.456C42.8343 0.685588 41.3206 0.28 39.7798 0.28C38.239 0.28 36.7253 0.685588 35.3909 1.456L4.66867 19.0116C3.3356 19.7812 2.22836 20.8879 1.45803 22.2205C0.687701 23.5532 0.281364 25.065 0.279785 26.6043V61.7154C0.281364 63.2547 0.687701 64.7666 1.45803 66.0992C2.22836 67.4319 3.3356 68.5386 4.66867 69.3082L35.3909 86.8638C36.7253 87.6342 38.239 88.0398 39.7798 88.0398C41.3206 88.0398 42.8343 87.6342 44.1687 86.8638L74.8909 69.3082C76.224 68.5386 77.3312 67.4319 78.1015 66.0992C78.8719 64.7666 79.2782 63.2547 79.2798 61.7154V26.6043Z" stroke="white" stroke-width="0.56" stroke-linecap="round" stroke-linejoin="round"/>
</svg>
