<svg width="344" height="110" viewBox="0 0 344 110" fill="none" xmlns="http://www.w3.org/2000/svg">
<rect width="109.418" height="109.418" fill="#FF4016"/>
<g clip-path="url(#clip0_1659_354)">
<path d="M47.1627 43.3171L53.9501 36.5297L60.7376 43.3171L67.525 36.5297L74.3125 43.3171L67.525 50.1045L74.3125 56.892L67.525 63.6794L60.7376 56.892L53.9501 63.6794L47.1627 56.892L53.9501 50.1045L47.1627 43.3171ZM33.5879 56.892L40.3753 50.1045L47.1627 56.892L40.3753 63.6794L33.5879 56.892ZM47.1627 70.4669L53.9501 63.6794L60.7376 70.4669L53.9501 77.2543L47.1627 70.4669Z" fill="black"/>
</g>
<path d="M150.311 36.8479V26.1244H171.759V36.8479H150.311ZM150.311 69.0187H139.588V36.8479H150.311V69.0187ZM171.759 47.5715V36.8479H182.482V47.5715H171.759ZM182.482 69.0187H171.759V58.2951H182.482V69.0187ZM171.759 69.0187V79.7422H150.311V69.0187H171.759ZM203.929 79.7422V69.0187H193.206V36.8479H203.929V69.0187H214.653V36.8479H225.377V79.7422H203.929ZM246.824 69.0187H257.547V79.7422H236.1V26.1244H246.824V36.8479H257.547V47.5715H246.824V69.0187ZM257.547 69.0187V47.5715H268.271V69.0187H257.547ZM278.994 26.1244V15.4008H289.718V26.1244H278.994ZM289.718 79.7422H278.994V36.8479H289.718V79.7422ZM311.165 69.0187H300.442V47.5715H311.165V69.0187H321.889V47.5715H311.165V36.8479H332.612V90.4658H321.889V79.7422H311.165V69.0187Z" fill="white"/>
<defs>
<clipPath id="clip0_1659_354">
<rect width="48.3998" height="48.3998" fill="white" transform="translate(33.5879 29.7422)"/>
</clipPath>
</defs>
</svg>
