<svg width="166" height="55" viewBox="0 0 166 55" fill="none" xmlns="http://www.w3.org/2000/svg">
<path d="M56.083 18.6681V12.5852H68.2489V18.6681H56.083ZM56.083 36.917H50V18.6681H56.083V36.917ZM68.2489 24.7511V18.6681H74.3319V24.7511H68.2489ZM74.3319 36.917H68.2489V30.8341H74.3319V36.917ZM68.2489 36.917V43H56.083V36.917H68.2489ZM86.4978 43V36.917H80.4148V18.6681H86.4978V36.917H92.5808V18.6681H98.6637V43H86.4978ZM110.83 36.917H116.913V43H104.747V12.5852H110.83V18.6681H116.913V24.7511H110.83V36.917ZM116.913 36.917V24.7511H122.996V36.917H116.913ZM129.079 12.5852V6.50221H135.162V12.5852H129.079ZM135.162 43H129.079V18.6681H135.162V43ZM147.327 36.917H141.244V24.7511H147.327V36.917H153.41V24.7511H147.327V18.6681H159.493V49.083H153.41V43H147.327V36.917Z" fill="white"/>
<path d="M12.7261 17.363L19.0891 11L25.4522 17.363L31.8152 11L38.1783 17.363L31.8152 23.7261L38.1783 30.0891L31.8152 36.4522L25.4522 30.0891L19.0891 36.4522L12.7261 30.0891L19.0891 23.7261L12.7261 17.363ZM0 30.0891L6.36306 23.7261L12.7261 30.0891L6.36306 36.4522L0 30.0891ZM12.7261 42.8152L19.0891 36.4522L25.4522 42.8152L19.0891 49.1784L12.7261 42.8152Z" fill="#FF4016"/>
</svg>
